<svg width="24" height="24" viewBox="0 0 24 24" fill="none" xmlns="http://www.w3.org/2000/svg">
<path fill-rule="evenodd" clip-rule="evenodd" d="M12.9846 3.58065C12.547 2.80645 11.453 2.80645 11.0154 3.58064L2.15401 19.2581C1.71641 20.0323 2.26341 21 3.13861 21H20.8614C21.7366 21 22.2836 20.0323 21.846 19.2581L12.9846 3.58065ZM12 19C12.5523 19 13 18.5523 13 18V17.9C13 17.3477 12.5523 16.9 12 16.9C11.4477 16.9 11 17.3477 11 17.9V18C11 18.5523 11.4477 19 12 19ZM13 7V15H11V7H13Z" fill="#CFD9E5" fill-opacity="0.95"/>
</svg>
